<?xml version="1.0" encoding="UTF-8"?>
<svg width="32px" height="32px" viewBox="0 0 32 32" version="1.1" xmlns="http://www.w3.org/2000/svg" xmlns:xlink="http://www.w3.org/1999/xlink">
    <!-- Generator: Sketch 61.2 (89653) - https://sketch.com -->
    <title>gsd-icon-line-universal-checkbox</title>
    <desc>Created with Sketch.</desc>
    <g id="组件规范" stroke="none" stroke-width="1" fill="none" fill-rule="evenodd">
        <g id="03图标" transform="translate(-691.000000, -2438.000000)" fill="#1D1F24">
            <g id="icon/line/universal/checkbox" transform="translate(691.000000, 2438.000000)">
                <g id="辅助线" transform="translate(2.000000, 2.000000)"></g>
                <path d="M28.25,3.5 C28.3880712,3.5 28.5,3.61192881 28.5,3.75 L28.5,28.25 C28.5,28.3880712 28.3880712,28.5 28.25,28.5 L3.75,28.5 C3.61192881,28.5 3.5,28.3880712 3.5,28.25 L3.5,3.75 C3.5,3.61192881 3.61192881,3.5 3.75,3.5 L28.25,3.5 Z M26.25,5.75 L5.75,5.75 L5.75,26.25 L26.25,26.25 L26.25,5.75 Z M21.2054439,11.0678617 L22.6196575,12.4820752 C22.668473,12.5308908 22.668473,12.6100364 22.6196575,12.6588519 L14.4216383,20.8568712 C14.3728227,20.9056867 14.2936771,20.9056867 14.2448616,20.8568712 L9.69286165,16.3048713 C9.64404612,16.2560557 9.64404612,16.1769101 9.69286165,16.1280946 L11.1070752,14.713881 C11.1558908,14.6650655 11.2350364,14.6650655 11.2838519,14.713881 L14.3332499,17.763279 L21.0286672,11.0678617 C21.0774828,11.0190461 21.1566284,11.0190461 21.2054439,11.0678617 Z" id="形状"></path>
            </g>
        </g>
    </g>
</svg>