<svg width="48" height="48" viewBox="0 0 48 48" fill="none" xmlns="http://www.w3.org/2000/svg">
<path fill-rule="evenodd" clip-rule="evenodd" d="M17.35 8.30668C16.5901 8.1055 15.8043 8 15 8C8.37258 8 3 15.1634 3 24C3 32.8366 8.37258 40 15 40C15.5765 40 16.1435 39.9458 16.6983 39.841C13.7835 35.8219 12 30.4287 12 24.5C12 18.1413 14.0515 12.3987 17.35 8.30668Z" fill="url(#paint0_linear_3519_185643)" style=""/>
<ellipse cx="29.5" cy="24" rx="15.5" ry="20" fill="url(#paint1_linear_3519_185643)" fill-opacity="0.9" style=""/>
<mask id="mask0_3519_185643" style="mask-type:alpha" maskUnits="userSpaceOnUse" x="14" y="4" width="31" height="40">
<ellipse opacity="0.9" cx="29.5" cy="24" rx="15.5" ry="20" fill="url(#paint2_linear_3519_185643)" fill-opacity="0.86" style=""/>
</mask>
<g mask="url(#mask0_3519_185643)">
<g opacity="0.7" filter="url(#filter0_f_3519_185643)">
<ellipse cx="15" cy="24" rx="12" ry="16" fill="url(#paint3_linear_3519_185643)" style=""/>
</g>
</g>
<defs>
<filter id="filter0_f_3519_185643" x="1" y="6" width="28" height="36" filterUnits="userSpaceOnUse" color-interpolation-filters="sRGB">
<feFlood flood-opacity="0" result="BackgroundImageFix"/>
<feBlend mode="normal" in="SourceGraphic" in2="BackgroundImageFix" result="shape"/>
<feGaussianBlur stdDeviation="1" result="effect1_foregroundBlur_3519_185643"/>
</filter>
<linearGradient id="paint0_linear_3519_185643" x1="10.175" y1="8" x2="10.175" y2="40" gradientUnits="userSpaceOnUse">
<stop stop-opacity="0.86" style="stop-color:black;stop-opacity:0.86;"/>
<stop offset="1" stop-opacity="0.44" style="stop-color:black;stop-opacity:0.44;"/>
</linearGradient>
<linearGradient id="paint1_linear_3519_185643" x1="29.5" y1="4" x2="29.5" y2="44" gradientUnits="userSpaceOnUse">
<stop style="stop-color:black;stop-opacity:1;"/>
<stop offset="1" stop-opacity="0.6" style="stop-color:black;stop-opacity:0.6;"/>
</linearGradient>
<linearGradient id="paint2_linear_3519_185643" x1="29.5" y1="13.5" x2="29.5" y2="49" gradientUnits="userSpaceOnUse">
<stop stop-opacity="0.86" style="stop-color:black;stop-opacity:0.86;"/>
<stop offset="1" stop-color="#666666" stop-opacity="0.8" style="stop-color:#666666;stop-color:color(display-p3 0.4000 0.4000 0.4000);stop-opacity:0.8;"/>
</linearGradient>
<linearGradient id="paint3_linear_3519_185643" x1="15" y1="10.2882" x2="15" y2="38.6076" gradientUnits="userSpaceOnUse">
<stop style="stop-color:black;stop-opacity:1;"/>
<stop offset="1" stop-opacity="0.3" style="stop-color:black;stop-opacity:0.3;"/>
</linearGradient>
</defs>
</svg>
