<svg width="48" height="48" viewBox="0 0 48 48" fill="none" xmlns="http://www.w3.org/2000/svg">
<path fill-rule="evenodd" clip-rule="evenodd" d="M24 22C28.9706 22 33 17.9706 33 13C33 8.02944 28.9706 4 24 4C19.0294 4 15 8.02944 15 13C15 17.9706 19.0294 22 24 22ZM9.46009 27.0899C11.5992 26 14.3995 26 20 26H28C33.6005 26 36.4008 26 38.5399 27.0899C40.4215 28.0487 41.9513 29.5785 42.9101 31.4601C44 33.5992 44 36.3995 44 42H4C4 36.3995 4 33.5992 5.08993 31.4601C6.04867 29.5785 7.57847 28.0487 9.46009 27.0899Z" fill="#242424" style="fill:#242424;fill:color(display-p3 0.1412 0.1412 0.1412);fill-opacity:1;"/>
</svg>
