<svg width="48" height="48" viewBox="0 0 48 48" fill="none" xmlns="http://www.w3.org/2000/svg">
<path fill-rule="evenodd" clip-rule="evenodd" d="M19.0096 35H25V38H17.8863C17.0579 38 16.4103 37.3221 16.2758 36.5047C15.9763 34.6852 15.0915 33.7749 13.9066 32.5559L13.9065 32.5558C13.6548 32.2968 13.3894 32.0239 13.1133 31.7253C9.96796 28.8035 8 24.6316 8 20C8 11.1634 15.1634 4 24 4C32.8366 4 40 11.1634 40 20C40 21.7461 39.7203 23.4268 39.2033 24.9998H36.0046C36.6462 23.4611 37 21.7727 37 20C37 12.8203 31.1797 7 24 7C16.8203 7 11 12.8203 11 20C11 23.7633 12.5952 27.1494 15.1551 29.5273C15.2107 29.5789 15.2643 29.6327 15.3158 29.6884C15.563 29.9556 15.8033 30.2031 16.0578 30.4649L16.1568 30.5666C17.1724 31.6098 18.4066 32.8776 19.0096 35ZM17 40.5833H28.523L29.5138 43.5833H17V40.5833ZM34.5 43.9998V37.4998H28V34.4998H34.5V27.9998H37.5V34.4998H44V37.4998H37.5V43.9998H34.5Z" fill="black" fill-opacity="0.86" style="fill:black;fill-opacity:0.86;"/>
</svg>
